<svg xmlns="http://www.w3.org/2000/svg" width="14" height="14" viewBox="0 0 14 14"><g fill="none" fill-rule="evenodd" clip-rule="evenodd"><path fill="#31a8cc" d="M7 .25c-2.092 0-3.797.59-4.979 1.771S.25 4.908.25 7s.59 3.797 1.771 4.979S4.908 13.75 7 13.75s3.797-.59 4.979-1.771S13.75 9.092 13.75 7s-.59-3.797-1.771-4.979S9.092.25 7 .25"/><path fill="#2D3A4F" d="M7.389 2.735a4.246 4.246 0 1 0 2.887 7.36c.199-.185.178-.438.08-.608a.6.6 0 0 0-.508-.296a2.21 2.21 0 1 1 0-4.419a.6.6 0 0 0 .508-.296c.098-.17.119-.423-.08-.608a4.23 4.23 0 0 0-2.887-1.133"/></g></svg>