<?xml version="1.0" encoding="UTF-8" standalone="no"?>
<!-- Uploaded to: SVG Repo, www.svgrepo.com, Generator: SVG Repo Mixer Tools -->

<svg
   fill="#000000"
   height="604.26526"
   width="800.00208"
   version="1.1"
   id="Capa_1"
   viewBox="0 0 380.00099 287.026"
   xml:space="preserve"
   sodipodi:docname="api-page-svgrepo-com.svg"
   inkscape:version="1.4.2 (f4327f4, 2025-05-13)"
   xmlns:inkscape="http://www.inkscape.org/namespaces/inkscape"
   xmlns:sodipodi="http://sodipodi.sourceforge.net/DTD/sodipodi-0.dtd"
   xmlns="http://www.w3.org/2000/svg"
   xmlns:svg="http://www.w3.org/2000/svg"><defs
   id="defs4">
	
	
	
	
</defs><sodipodi:namedview
   id="namedview4"
   pagecolor="#ffffff"
   bordercolor="#000000"
   borderopacity="0.25"
   inkscape:showpageshadow="2"
   inkscape:pageopacity="0.0"
   inkscape:pagecheckerboard="0"
   inkscape:deskcolor="#d1d1d1"
   inkscape:zoom="1.00875"
   inkscape:cx="399.50434"
   inkscape:cy="301.85874"
   inkscape:window-width="1920"
   inkscape:window-height="1009"
   inkscape:window-x="-8"
   inkscape:window-y="-8"
   inkscape:window-maximized="1"
   inkscape:current-layer="Capa_1" />
<path
   d="M 368.317,0 H 11.684 C 5.241,0 0,5.243 0,11.686 v 263.656 c 0,6.442 5.241,11.684 11.684,11.684 h 356.634 c 6.442,0 11.683,-5.242 11.683,-11.684 V 11.686 C 380,5.243 374.76,0 368.317,0 Z m -87.368,212.781 c 5.162,-12.192 17.053,-20.07 30.295,-20.07 4.411,0 8.721,0.878 12.813,2.61 16.696,7.072 24.529,26.408 17.461,43.105 -5.167,12.191 -17.058,20.068 -30.294,20.068 0,0 0,0 -10e-4,0 -4.411,0 -8.721,-0.878 -12.81,-2.611 -8.089,-3.424 -14.361,-9.793 -17.659,-17.935 -3.299,-8.141 -3.23,-17.079 0.195,-25.167 z M 320.868,33.284 c 6.844,0 12.387,5.547 12.387,12.387 0,6.842 -5.543,12.387 -12.387,12.387 -6.839,0 -12.385,-5.545 -12.385,-12.387 0,-6.84 5.546,-12.387 12.385,-12.387 z m -37.153,0 c 6.839,0 12.386,5.547 12.386,12.387 0,6.842 -5.547,12.387 -12.386,12.387 -6.839,0 -12.387,-5.545 -12.387,-12.387 0,-6.84 5.548,-12.387 12.387,-12.387 z m -37.154,0 c 6.839,0 12.381,5.547 12.381,12.387 0,6.842 -5.542,12.387 -12.381,12.387 -6.844,0 -12.387,-5.545 -12.387,-12.387 0.001,-6.84 5.544,-12.387 12.387,-12.387 z M 21.27,267.523 V 94.937 h 337.46 v 67.274 c -1.537,-2.202 -3.677,-4.02 -6.327,-5.143 l -20.614,-8.726 c -1.835,-0.778 -3.771,-1.172 -5.754,-1.172 -5.956,0 -11.303,3.54 -13.623,9.02 l -1.253,2.959 c -9.227,0.129 -18.381,2.255 -26.728,6.193 l -2.426,-2.107 c -1.174,-1.018 -2.499,-1.841 -3.932,-2.447 -1.841,-0.779 -3.782,-1.174 -5.771,-1.174 -4.276,0 -8.341,1.858 -11.154,5.099 l -14.671,16.915 c -2.583,2.986 -3.855,6.794 -3.581,10.735 0.285,3.941 2.084,7.535 5.064,10.115 l 2.417,2.098 c -2.755,8.849 -3.563,18.179 -2.365,27.344 l -2.749,1.654 c -6.981,4.2 -9.242,13.302 -5.039,20.293 l 8.82,14.646 H 22.26 c -0.546,0 -0.99,-0.444 -0.99,-0.99 z"
   id="path4"
   style="fill:#31aacc;fill-opacity:0.984314" />
<text
   xml:space="preserve"
   style="font-weight:bold;font-size:116.516px;line-height:1.55;font-family:'Noto Kufi Arabic';-inkscape-font-specification:'Noto Kufi Arabic Bold';text-align:justify;writing-mode:lr-tb;direction:ltr;text-anchor:start;fill:#31aacc;fill-opacity:0.984314;stroke:#cccccc;stroke-width:0"
   x="32.173878"
   y="196.79372"
   id="text4"><tspan
     sodipodi:role="line"
     id="tspan4"
     style="font-style:normal;font-variant:normal;font-weight:bold;font-stretch:normal;font-family:'Miriam Libre';-inkscape-font-specification:'Miriam Libre Bold';fill:#31aacc;fill-opacity:0.984314;stroke-width:0"
     x="32.173878"
     y="196.79372">DEV</tspan></text></svg>
